<?xml version="1.0" encoding="utf-8"?>
<!-- Generator: Adobe Illustrator 16.0.0, SVG Export Plug-In . SVG Version: 6.00 Build 0)  -->
<!DOCTYPE svg PUBLIC "-//W3C//DTD SVG 1.1//EN" "http://www.w3.org/Graphics/SVG/1.1/DTD/svg11.dtd">
<svg version="1.1" id="Camada_1" xmlns="http://www.w3.org/2000/svg" xmlns:xlink="http://www.w3.org/1999/xlink" x="0px" y="0px"
	 width="218.667px" height="154.667px" viewBox="0 0 218.667 154.667" enable-background="new 0 0 218.667 154.667"
	 xml:space="preserve">
<path fill="#0B2600" d="M111.76,152.667c-3.319,0-7.601-1.816-17.142-10.246c-15.065,5.055-32.496,8.459-51.881,10.129l-0.121,0.01
	c-1.092,0.072-1.967,0.107-2.672,0.107c-3.961,0-9.022-2.455-21.999-14.67c-14.612-13.74-15.741-17.074-15.741-20.281
	c0-1.072,0.387-6.461,8-7.264c16.52-1.99,27.583-3.689,32.794-5.039c8.594-2.273,13.741-5.447,13.741-8.482
	c0-0.027-0.246-2.852-9.094-8.359c-20.998-12.8-22.312-13.847-23.017-14.41c-9.528-7.602-14.358-16.359-14.358-26.03
	c0-14.018,11.274-25.396,33.511-33.82C60.353,7.958,80.918,3.773,104.88,1.882l0.195-0.013c1.496-0.069,2.5-0.101,3.26-0.101
	c3.694,0,6.929,1.689,9.103,4.756l0.084,0.123c0.932,1.384,2.342,3.219,4.213,5.479c15.426-5.138,33.889-8.58,54.959-10.244
	l0.195-0.013c1.496-0.069,2.502-0.101,3.26-0.101c3.695,0,6.928,1.689,9.102,4.756l0.084,0.121
	c2.84,4.221,9.773,12.207,20.611,23.733c1.424,1.504,2.154,3.205,2.154,5.04c0,2.814-1.928,7.578-9.156,7.578
	c-1.117,0-2.781-0.097-5.236-0.303c-2.066-0.17-3.611-0.256-4.582-0.256c-7.758,0-14.57,0.932-20.246,2.77
	c-5.492,1.701-7.246,3.514-7.246,4.129l0,0c0.014,0,0.74,2.897,9.91,8.895c18.756,12.506,22.895,15.282,23.508,15.717l0.334,0.254
	c9.717,7.97,14.645,16.367,14.645,24.958c0,15.08-11.281,27.783-33.529,37.76c-18.049,8.154-40.24,13.416-65.947,15.629l-0.121,0.01
	C113.34,152.632,112.467,152.667,111.76,152.667z"/>
<path fill="#74C182" d="M137.363,96.514c0,12.558-9.996,23.321-29.985,32.285c-17.536,7.923-38.87,12.961-64.006,15.126
	c-0.937,0.062-1.695,0.094-2.279,0.094c-2.69,0-8.651-4.346-17.885-13.038c-9.236-8.687-13.853-13.99-13.853-15.912
	c0-0.681,0.876-1.112,2.628-1.297c16.95-2.042,28.173-3.774,33.669-5.198c12.157-3.216,18.236-7.979,18.236-14.29
	c0-4.02-3.975-8.505-11.924-13.454C38.17,72.42,30.685,67.752,29.519,66.822c-8.065-6.435-12.099-13.55-12.099-21.339
	c0-11.322,9.878-20.724,29.636-28.209C63.188,11.09,83.001,7.07,106.5,5.215c1.285-0.06,2.28-0.094,2.982-0.094
	c1.752,0,3.156,0.742,4.208,2.226c3.037,4.518,10.11,12.679,21.217,24.494c0.352,0.371,0.526,0.681,0.526,0.93
	c0,1.052-1.053,1.578-3.155,1.578c-0.938,0-2.516-0.095-4.735-0.281c-2.222-0.183-3.919-0.277-5.085-0.277
	c-8.416,0-15.782,1.018-22.096,3.062c-7.599,2.354-11.396,5.63-11.396,9.838c0,3.771,4.208,8.41,12.624,13.915
	c14.847,9.898,22.621,15.092,23.323,15.59C133.211,83,137.363,89.771,137.363,96.514z"/>
<path fill="#34CC02" d="M196.727,76.194c-0.702-0.498-8.477-5.691-23.321-15.59C164.988,55.1,160.78,50.46,160.78,46.689
	c0-4.208,3.796-7.484,11.398-9.838c6.313-2.044,13.677-3.062,22.095-3.062c1.167,0,2.861,0.095,5.084,0.277
	c2.22,0.187,3.798,0.281,4.734,0.281c2.104,0,3.156-0.526,3.156-1.578c0-0.249-0.175-0.559-0.526-0.93
	c-11.108-11.815-18.18-19.977-21.219-24.494c-1.052-1.483-2.452-2.226-4.206-2.226c-0.702,0-1.697,0.034-2.982,0.094
	c-23.496,1.855-43.312,5.875-59.443,12.06C99.113,24.76,89.236,34.161,89.236,45.483c0,7.789,4.032,14.904,12.099,21.339
	c0.688,0.551,3.626,2.43,8.738,5.598c2.725,1.599,5.283,2.845,7.691,3.931c12.133,7.12,42.294,30.225-21.678,56.03l0.709,0.238
	c-0.183-0.061,0,0,0,0c8.204,7.563,13.602,11.399,16.112,11.399c0.583,0,1.343-0.032,2.278-0.094
	c25.134-2.165,46.47-7.203,64.006-15.126c19.991-8.964,29.985-19.728,29.985-32.285C209.177,89.771,205.026,83,196.727,76.194z"/>
<path fill="#466D4A" d="M100.411,66.025C92.988,59.8,89.236,52.957,89.236,45.483c0-11.322,9.877-20.724,29.635-28.209
	c0.672-0.257,1.389-0.488,2.073-0.739l0.016-0.039l-3.64-4.406c0,0-17.651,1.913-28.084,19.193
	C75.888,53.393,100.401,66.05,100.401,66.05L100.411,66.025z"/>
<g>
	<path fill="#046612" d="M133.035,118.306c15.377-22.98-8.701-37.737-8.701-37.737v0.002c13,9.864,26.316,29.854-28.08,51.803
		l-0.081,0.012l0.66,0.234c1.971,1.815,3.824,3.403,5.469,4.788C104.77,137.169,121.906,134.938,133.035,118.306z"/>
	<path fill="#046612" d="M96.795,132.619C96.613,132.559,96.795,132.619,96.795,132.619L96.795,132.619z"/>
</g>
</svg>
